<svg xmlns="http://www.w3.org/2000/svg" xmlns:xlink="http://www.w3.org/1999/xlink" version="1.1" width="929.2385400854926" height="200" viewBox="-0.030249983072280884 10.224047660827637 140.72975158691406 22.44156265258789"><path d="M13.44 11.60L13.44 11.60Q13.61 11.37 14.30 11.48Q14.98 11.60 15.34 12.08Q15.70 12.56 15.77 13.22Q15.84 13.89 15.79 14.59Q15.74 15.29 15.65 15.90Q15.57 16.50 15.35 17.50Q15.14 18.50 14.66 20.31Q14.18 22.13 13.04 24.58Q11.89 27.03 11.28 27.95Q10.66 28.87 10.04 29.52Q9.41 30.18 8.52 30.93Q7.62 31.68 6.45 32.12Q5.27 32.56 4.06 32.65Q2.85 32.73 2.19 32.40Q1.52 32.07 1.02 31.73Q0.51 31.39 0.21 30.69Q-0.10 30-0.01 28.96Q0.08 27.91 0.03 27.83Q-0.02 27.75 0.63 26.44Q1.29 25.12 1.83 24.59Q2.36 24.06 3.88 22.97Q5.39 21.88 8.43 20.68Q11.46 19.49 8.10 21.01Q4.73 22.52 3.54 23.76Q2.36 25 2.07 26.33Q1.78 27.66 1.81 28.52Q1.84 29.38 2.05 29.71Q2.27 30.04 2.51 30.17Q2.75 30.29 3.35 30.31Q3.95 30.33 5.39 29.87Q6.84 29.41 8.00 28.12Q9.16 26.82 9.80 25.85Q10.45 24.88 10.93 23.77Q11.41 22.66 11.54 22.09Q11.68 21.52 11.94 20.63Q12.21 19.75 12.70 17.70Q13.18 15.64 13.25 14.78Q13.32 13.91 13.32 13.48Q13.32 13.05 13.16 12.67Q13.01 12.29 13.13 12.06Q13.26 11.84 13.44 11.60ZM20.84 21.66L20.84 21.66Q21.29 21.54 21.83 21.62Q22.36 21.70 22.69 21.95Q23.01 22.21 23.30 22.95Q23.59 23.69 23.04 23.95Q22.48 24.20 22.03 23.77Q21.58 23.34 21.09 23.59Q20.61 23.85 20.13 24.11Q19.65 24.38 18.95 24.94Q18.24 25.51 17.50 26.39Q16.76 27.27 16.68 27.51Q16.60 27.75 17.06 27.44Q17.52 27.13 18.47 26.49Q19.41 25.86 20.85 25.20Q22.29 24.53 22.67 24.68Q23.05 24.82 23.32 25.21Q23.59 25.61 23.63 25.89Q23.67 26.17 23.54 26.34Q23.42 26.50 23.25 27.09Q23.09 27.68 23.28 28.22Q23.48 28.77 23.78 28.97Q24.08 29.18 24.61 29.09Q25.14 29.00 25.91 28.29Q26.68 27.58 25.84 28.62Q25 29.67 24.51 29.95Q24.02 30.23 23.75 30.22Q23.48 30.21 23.04 30.05Q22.60 29.88 22.21 29.53Q21.82 29.18 21.59 28.67Q21.37 28.16 21.29 27.92Q21.21 27.68 20.93 27.38Q20.64 27.09 20.23 27.26Q19.82 27.42 18.80 28.16Q17.77 28.91 16.88 29.38Q16.00 29.86 15.29 30.05Q14.59 30.23 14.38 30.18Q14.18 30.12 13.94 29.74Q13.69 29.36 13.65 28.91Q13.61 28.46 13.78 28.00Q13.95 27.54 15.03 26.16Q16.11 24.79 17.12 23.91Q18.13 23.03 19.26 22.41Q20.39 21.80 20.84 21.66ZM28.50 21.95L28.50 21.95Q28.91 21.76 29.54 22.03Q30.18 22.30 29.81 23.05Q29.45 23.79 28.63 25.50Q27.81 27.21 28.47 26.44Q29.12 25.66 30.05 24.86Q30.98 24.06 31.39 23.83Q31.80 23.59 32.28 23.48Q32.75 23.36 33.36 23.54Q33.96 23.71 34.39 24.52Q34.82 25.33 34.85 27.20Q34.88 29.06 35.77 29.02Q36.66 28.98 37.50 28.37Q38.34 27.75 38.75 27.12Q39.16 26.48 39.10 26.78Q39.04 27.07 38.65 27.64Q38.26 28.20 36.99 29.39Q35.72 30.59 34.79 30.61Q33.87 30.63 33.45 29.86Q33.03 29.10 32.90 27.43Q32.77 25.76 32.46 25.73Q32.15 25.70 31.09 26.36Q30.04 27.01 29.16 28.07Q28.28 29.12 27.72 29.85Q27.17 30.59 26.72 30.74Q26.27 30.90 25.99 30.51Q25.70 30.12 25.79 29.55Q25.88 28.98 26.13 27.81Q26.39 26.64 26.86 25.34Q27.32 24.04 26.64 24.49Q25.96 24.94 24.97 25.85Q23.98 26.76 25.67 24.99Q27.36 23.22 27.55 22.93Q27.73 22.64 27.91 22.39Q28.09 22.15 28.50 21.95ZM47.27 11.89L47.27 11.89Q47.99 11.66 48.54 11.75Q49.08 11.84 49.53 12.00Q49.98 12.17 50.23 12.58Q50.49 12.99 50.57 13.50Q50.64 14.00 50.43 14.45Q50.21 14.90 49.92 15.23Q49.63 15.57 49.38 15.97Q49.14 16.37 48.68 16.51Q48.22 16.66 48.02 16.51Q47.81 16.37 48.25 15.28Q48.69 14.20 48.29 14.03Q47.89 13.87 47.35 14.01Q46.82 14.16 45.81 15.09Q44.80 16.02 44.14 17.24Q43.48 18.46 43.35 19.23Q43.22 20 43.29 20.75Q43.36 21.50 43.54 22.63Q43.73 23.75 43.94 24.64Q44.14 25.53 43.99 26.97Q43.85 28.42 43.28 29.36Q42.71 30.29 42.23 30.95Q41.74 31.60 41.10 32.01Q40.47 32.42 39.68 32.47Q38.89 32.52 38.45 32.35Q38.01 32.19 37.54 31.51Q37.07 30.84 37.03 30.28Q36.99 29.73 37.38 28.99Q37.77 28.26 38.61 27.38Q39.45 26.50 40.05 26.31Q40.64 26.11 41.10 25.63Q41.56 25.16 41.06 22.95Q40.57 20.74 40.82 19.16Q41.07 17.58 41.50 16.69Q41.93 15.80 42.87 14.78Q43.81 13.75 44.52 13.30Q45.23 12.85 45.89 12.48Q46.54 12.11 47.27 11.89ZM41.21 26.39L41.21 26.39Q40.92 25.90 39.70 27.42Q38.48 28.95 38.56 29.51Q38.65 30.08 38.94 30.16Q39.22 30.23 39.51 30.17Q39.80 30.10 40.04 29.85Q40.27 29.61 40.68 29.24Q41.09 28.87 41.33 28.30Q41.56 27.73 41.53 27.30Q41.50 26.88 41.21 26.39ZM51.33 21.54L51.33 21.54Q52.64 21.45 52.92 21.98Q53.20 22.52 53.18 23.35Q53.16 24.18 52.40 24.76Q51.64 25.33 50.39 25.90L50.39 25.90Q50.04 26.04 49.76 26.04Q49.47 26.05 49.29 26.03Q49.10 26.00 48.99 25.97Q48.89 25.94 48.87 26.00L48.87 26.00Q48.52 26.56 48.51 27.13Q48.50 27.70 48.88 28.17Q49.26 28.65 49.73 28.73Q50.20 28.81 50.70 28.70Q51.21 28.59 52.58 28.03Q53.95 27.46 54.48 26.96Q55.02 26.46 55.51 26.00Q56.00 25.53 55.64 26.00Q55.29 26.46 54.78 27.13Q54.26 27.79 53.49 28.45Q52.71 29.10 52.23 29.45Q51.74 29.80 50.93 30.09Q50.12 30.37 49.34 30.26Q48.55 30.16 48.16 29.90Q47.77 29.65 47.44 29.30Q47.11 28.95 46.89 28.47Q46.68 27.99 46.67 27.16Q46.66 26.33 47.06 25.35Q47.46 24.38 47.97 23.73Q48.48 23.09 49.35 22.43Q50.21 21.78 51.33 21.54ZM51.35 23.30L51.35 23.30Q51.21 23.16 50.67 23.44Q50.14 23.71 49.89 24.05Q49.65 24.39 49.80 24.55Q49.96 24.71 50.47 24.42Q50.98 24.14 51.28 23.86Q51.58 23.57 51.35 23.30ZM62.48 22.32L62.48 22.32Q62.70 22.15 63.01 22.16Q63.32 22.17 63.55 22.39Q63.79 22.62 64.14 22.97Q64.49 23.32 65.12 23.43Q65.74 23.54 67.23 23.25Q68.71 22.97 67.21 23.36Q65.70 23.75 64.72 23.98Q63.73 24.22 63.21 24.75Q62.70 25.27 62.03 26.09Q61.37 26.91 60.51 28.20Q59.65 29.49 59.38 29.96Q59.10 30.43 58.67 30.74Q58.24 31.05 57.73 30.82Q57.23 30.59 56.99 30.12Q56.76 29.65 56.72 29.02Q56.68 28.40 56.33 27.38Q55.98 26.37 55.48 25.43Q54.98 24.49 55.24 24.02Q55.51 23.55 56.05 23.48Q56.60 23.40 56.99 23.87Q57.38 24.34 57.73 25.34Q58.09 26.35 58.18 26.87Q58.28 27.38 58.57 27.19Q58.87 26.99 60.39 24.92Q61.91 22.85 62.09 22.67Q62.27 22.48 62.48 22.32ZM71.04 21.66L71.04 21.66Q71.48 21.54 72.02 21.62Q72.56 21.70 72.88 21.95Q73.20 22.21 73.50 22.95Q73.79 23.69 73.23 23.95Q72.68 24.20 72.23 23.77Q71.78 23.34 71.29 23.59Q70.80 23.85 70.32 24.11Q69.84 24.38 69.14 24.94Q68.44 25.51 67.70 26.39Q66.95 27.27 66.88 27.51Q66.80 27.75 67.26 27.44Q67.71 27.13 68.66 26.49Q69.61 25.86 71.04 25.20Q72.48 24.53 72.86 24.68Q73.24 24.82 73.52 25.21Q73.79 25.61 73.83 25.89Q73.87 26.17 73.74 26.34Q73.61 26.50 73.45 27.09Q73.28 27.68 73.48 28.22Q73.67 28.77 73.97 28.97Q74.28 29.18 74.80 29.09Q75.33 29.00 76.10 28.29Q76.88 27.58 76.04 28.62Q75.20 29.67 74.71 29.95Q74.22 30.23 73.95 30.22Q73.67 30.21 73.23 30.05Q72.79 29.88 72.40 29.53Q72.01 29.18 71.79 28.67Q71.56 28.16 71.48 27.92Q71.41 27.68 71.12 27.38Q70.84 27.09 70.43 27.26Q70.02 27.42 68.99 28.16Q67.97 28.91 67.08 29.38Q66.19 29.86 65.49 30.05Q64.79 30.23 64.58 30.18Q64.38 30.12 64.13 29.74Q63.89 29.36 63.85 28.91Q63.81 28.46 63.97 28.00Q64.14 27.54 65.22 26.16Q66.31 24.79 67.31 23.91Q68.32 23.03 69.45 22.41Q70.59 21.80 71.04 21.66ZM91.56 10.35L91.56 10.35Q91.95 10.12 92.46 10.31Q92.97 10.51 93.20 10.90Q93.44 11.29 93.32 11.58Q93.20 11.88 93.05 12.34Q92.89 12.81 92.85 13.16Q92.81 13.52 92.93 13.63Q93.05 13.75 94.80 14.61Q96.56 15.47 97.19 16.17Q97.81 16.88 98.05 17.27Q98.28 17.66 98.44 18.20Q98.59 18.75 98.63 19.26Q98.67 19.77 98.55 20.55Q98.44 21.33 97.30 22.50Q96.17 23.67 95.35 24.18Q94.53 24.69 93.59 25.04Q92.66 25.39 91.13 25.82Q89.61 26.25 88.98 26.29Q88.36 26.33 87.66 26.37Q86.95 26.41 86.76 26.88Q86.56 27.34 86.13 28.20Q85.70 29.06 85.37 30.21Q85.04 31.37 84.70 31.78Q84.36 32.19 83.86 32.16Q83.36 32.13 83.20 31.87Q83.05 31.60 83.98 28.57Q84.92 25.55 86.02 22.97Q87.11 20.39 87.23 19.84Q87.34 19.30 87.46 19.18Q87.58 19.06 87.90 17.57Q88.22 16.07 87.55 16.08Q86.88 16.09 87.66 15.12Q88.44 14.14 89.10 13.52Q89.77 12.89 90.04 12.46Q90.31 12.03 90.51 11.74Q90.70 11.45 90.94 11.02Q91.17 10.59 91.56 10.35ZM92.38 16.56L92.38 16.56Q91.95 16.48 91.37 16.99Q90.78 17.50 90.12 18.98Q89.45 20.47 88.83 21.82Q88.20 23.16 87.93 23.75Q87.66 24.34 89.02 24.14Q90.39 23.95 92.41 23.25Q94.43 22.56 95.30 21.51Q96.17 20.47 96.21 20.04Q96.25 19.61 96.17 19.18Q96.09 18.75 95.63 18.13Q95.16 17.50 93.98 17.07Q92.81 16.64 92.38 16.56ZM100.23 22.56L100.23 22.56Q100.61 22.21 101.14 22.11Q101.68 22.01 102.03 22.17Q102.38 22.32 102.63 22.72Q102.87 23.13 103.85 23.11Q104.82 23.09 106.28 23.12Q107.73 23.14 105.66 23.20Q103.59 23.26 103.31 23.37Q103.03 23.48 103.08 24.06Q103.13 24.65 103.15 25.30Q103.18 25.96 103.16 26.76Q103.14 27.56 103.05 27.95Q102.95 28.34 102.75 28.77Q102.56 29.20 102.18 29.68Q101.80 30.16 101.24 30.57Q100.68 30.98 100.21 31.18Q99.75 31.39 99.20 31.20Q98.65 31.02 98.31 30.62Q97.97 30.21 97.76 29.79Q97.56 29.36 97.59 28.28Q97.62 27.21 97.82 26.55Q98.03 25.90 98.46 25.19Q98.89 24.47 98.71 24.52Q98.54 24.57 98.62 24.47Q98.71 24.38 99.30 23.63Q99.88 22.89 100.23 22.56ZM101.21 25.63L101.21 25.63Q100.78 25.10 100.14 25.92Q99.49 26.74 99.37 27.66Q99.24 28.57 99.46 28.95Q99.69 29.32 99.93 29.38Q100.18 29.43 100.63 29.05Q101.07 28.67 101.36 27.40Q101.64 26.13 101.21 25.63ZM105.76 24.30L105.76 24.30Q106.46 21.58 107.12 21.64Q107.77 21.70 108.11 22.23Q108.44 22.75 108.04 23.53Q107.64 24.30 107.96 24.25Q108.28 24.20 108.81 23.86Q109.34 23.52 109.81 23.31Q110.29 23.11 110.59 23.05Q110.88 22.99 111.71 23.24Q112.54 23.50 113.28 23.96Q114.02 24.41 115.24 24.03Q116.46 23.65 114.98 24.29Q113.50 24.92 111.94 24.88Q110.39 24.84 109.54 25.25Q108.69 25.66 108.11 26.16Q107.52 26.66 107.02 27.80Q106.52 28.95 106.26 29.73Q106.00 30.51 105.79 31.01Q105.59 31.50 104.95 31.53Q104.32 31.56 104.11 31.07Q103.91 30.59 104.01 30.44Q104.12 30.29 104.60 28.65Q105.08 27.01 105.76 24.30ZM117.40 17.36L117.40 17.36Q117.64 17.09 118.14 17.13Q118.65 17.17 118.89 17.44Q119.12 17.71 119.28 18.11Q119.43 18.50 119.22 18.93Q119.00 19.36 118.81 20.05Q118.61 20.74 118.30 21.99Q117.99 23.24 118.34 23.40Q118.69 23.55 119.55 23.71Q120.41 23.87 122.29 23.83Q124.18 23.79 122.09 24.10Q120 24.41 118.99 24.67Q117.99 24.92 117.67 25.03Q117.34 25.14 116.57 27.20Q115.80 29.26 115.56 29.94Q115.31 30.63 115.04 30.86Q114.77 31.09 114.34 31.21Q113.91 31.33 113.55 31.17Q113.20 31.02 113.56 29.90Q113.93 28.79 114.55 27.27Q115.18 25.74 115.23 25.37Q115.29 25 114.73 25.10Q114.16 25.20 113.72 25.21Q113.28 25.21 113.29 24.66Q113.30 24.10 114.00 23.75Q114.71 23.40 115.25 23.39Q115.80 23.38 116.23 21.87Q116.66 20.35 116.74 19.85Q116.82 19.36 116.99 18.50Q117.17 17.64 117.40 17.36ZM126.58 21.66L126.58 21.66Q127.03 21.54 127.57 21.62Q128.11 21.70 128.43 21.95Q128.75 22.21 129.04 22.95Q129.34 23.69 128.78 23.95Q128.22 24.20 127.77 23.77Q127.32 23.34 126.84 23.59Q126.35 23.85 125.87 24.11Q125.39 24.38 124.69 24.94Q123.98 25.51 123.24 26.39Q122.50 27.27 122.42 27.51Q122.34 27.75 122.80 27.44Q123.26 27.13 124.21 26.49Q125.16 25.86 126.59 25.20Q128.03 24.53 128.41 24.68Q128.79 24.82 129.06 25.21Q129.34 25.61 129.38 25.89Q129.41 26.17 129.29 26.34Q129.16 26.50 128.99 27.09Q128.83 27.68 129.02 28.22Q129.22 28.77 129.52 28.97Q129.82 29.18 130.35 29.09Q130.88 29.00 131.65 28.29Q132.42 27.58 131.58 28.62Q130.74 29.67 130.25 29.95Q129.77 30.23 129.49 30.22Q129.22 30.21 128.78 30.05Q128.34 29.88 127.95 29.53Q127.56 29.18 127.33 28.67Q127.11 28.16 127.03 27.92Q126.95 27.68 126.67 27.38Q126.39 27.09 125.98 27.26Q125.57 27.42 124.54 28.16Q123.52 28.91 122.63 29.38Q121.74 29.86 121.04 30.05Q120.33 30.23 120.13 30.18Q119.92 30.12 119.68 29.74Q119.43 29.36 119.39 28.91Q119.36 28.46 119.52 28.00Q119.69 27.54 120.77 26.16Q121.86 24.79 122.86 23.91Q123.87 23.03 125 22.41Q126.13 21.80 126.58 21.66ZM136.43 15.94L136.43 15.94Q137.21 14.71 137.72 14.94Q138.24 15.18 138.28 15.55Q138.32 15.92 136.59 19.36Q134.86 22.79 134.09 25.75Q133.32 28.71 133.55 29.08Q133.79 29.45 134.39 29.30Q135 29.14 137.48 27.61Q139.96 26.07 140.53 25.60Q141.09 25.12 139.80 26.32Q138.52 27.52 137.86 28.12Q137.21 28.71 136.56 29.40Q135.92 30.10 134.99 30.61Q134.06 31.11 133.37 31.16Q132.68 31.21 132.35 30.84Q132.03 30.47 131.74 29.94Q131.45 29.41 131.69 28.00Q131.93 26.58 133.05 23.38Q134.16 20.18 134.90 18.66Q135.64 17.15 136.43 15.94Z" fill="#ffffff"/></svg>